<?xml version="1.0" encoding="UTF-8" standalone="no"?>
<!DOCTYPE svg PUBLIC "-//W3C//DTD SVG 1.1//EN" "http://www.w3.org/Graphics/SVG/1.1/DTD/svg11.dtd">
<svg width="100%" height="100%" viewBox="0 0 1024 1024" version="1.1" xmlns="http://www.w3.org/2000/svg" xmlns:xlink="http://www.w3.org/1999/xlink" xml:space="preserve" xmlns:serif="http://www.serif.com/" style="fill-rule:evenodd;clip-rule:evenodd;stroke-linejoin:round;stroke-miterlimit:2;">
    <g id="Symbol" transform="matrix(0.857143,0,0,0.857143,73.1429,73.1429)">
        <g transform="matrix(1.16667,0,0,1.16667,-85.3333,-85.3333)">
            <path d="M733.359,360.96C762.787,403.989 780,456 780,512C780,659.913 659.913,780 512,780C364.087,780 244,659.913 244,512C244,364.087 364.087,244 512,244C568,244 620.011,261.213 663.04,290.641C656.597,296.124 650.229,301.515 643.969,306.781C605.903,282.24 560.601,268 512,268C377.333,268 268,377.333 268,512C268,646.667 377.333,756 512,756C646.667,756 756,646.667 756,512C756,463.399 741.76,418.097 717.219,380.031C722.479,373.779 727.868,367.413 733.359,360.96Z" style="fill:rgb(254,43,39);"/>
        </g>
        <g transform="matrix(1.16667,0,0,1.16667,-85.3333,-85.3333)">
            <path d="M776.264,311.103C818.76,366.899 844,436.525 844,512C844,695.236 695.236,844 512,844C328.764,844 180,695.236 180,512C180,328.764 328.764,180 512,180C587.475,180 657.101,205.24 712.897,247.736C706.717,253.106 700.517,258.477 694.334,263.814C643.284,226.225 580.217,204 512,204C342.01,204 204,342.01 204,512C204,681.99 342.01,820 512,820C681.99,820 820,681.99 820,512C820,443.783 797.775,380.716 760.186,329.666C765.528,323.477 770.901,317.275 776.264,311.103Z" style="fill:rgb(255,92,21);"/>
        </g>
        <g transform="matrix(1.16667,0,0,1.16667,-85.3333,-85.3333)">
            <path d="M819.137,262.133C874.686,330.317 908,417.299 908,512C908,730.558 730.558,908 512,908C293.442,908 116,730.558 116,512C116,293.442 293.442,116 512,116C606.701,116 693.683,149.314 761.867,204.863C755.866,210.152 749.756,215.526 743.579,220.944C680.03,170.292 599.525,140 512,140C306.688,140 140,306.688 140,512C140,717.312 306.688,884 512,884C717.312,884 884,717.312 884,512C884,424.475 853.708,343.97 803.056,280.421C808.479,274.239 813.849,268.132 819.137,262.133Z" style="fill:rgb(255,136,5);"/>
        </g>
        <g transform="matrix(-0.942809,-0.942809,0.942809,-0.942809,597.019,1392.42)">
            <path d="M512,320L608,512C608,512 549.161,491.3 544,512C528,576.167 512,896.999 512,896.999C512,896.999 496,576.167 480,512C474.839,491.3 416,512 416,512L512,320Z" style="fill:rgb(237,2,77);"/>
        </g>
    </g>
</svg>
